<?xml version="1.0" encoding="utf-8"?>
<!-- Generator: Adobe Illustrator 23.0.3, SVG Export Plug-In . SVG Version: 6.00 Build 0)  -->
<svg version="1.1" id="Layer_1" xmlns="http://www.w3.org/2000/svg" xmlns:xlink="http://www.w3.org/1999/xlink" x="0px" y="0px"
	 viewBox="0 0 200 57" style="enable-background:new 0 0 200 57;" xml:space="preserve">
<style type="text/css">
	.st0{fill:#E72529;}
	.st1{fill:#060505;}
	.st2{fill:#FFFFFF;}
	.st3{fill:#221F1F;}
</style>
<g>
	<g>
		<polygon class="st0" points="0,42.64 0,11.09 35.5,11.09 35.5,30.81 23.75,19.56 		"/>
		<polygon class="st1" points="4.36,45.91 23.33,26.86 35.5,38.44 35.5,45.91 		"/>
		<rect x="20.48" y="36.03" class="st2" width="3.24" height="3.07"/>
		<rect x="20.48" y="40.32" class="st2" width="3.24" height="3.15"/>
		<rect x="24.99" y="36.03" class="st2" width="3.11" height="3.07"/>
		<rect x="24.77" y="40.32" class="st2" width="3.33" height="3.15"/>
	</g>
	<g>
		<g>
			<path class="st0" d="M52.33,29.01c-1.68,0-3.12-0.03-4.33-0.09c-1.2-0.06-2.22-0.16-3.04-0.32c-0.82-0.15-1.49-0.35-1.99-0.61
				c-0.5-0.25-0.89-0.57-1.16-0.95c-0.27-0.38-0.45-0.82-0.53-1.34c-0.08-0.51-0.13-1.11-0.13-1.8v-0.63h6.08v0.35
				c0,0.25,0.05,0.46,0.15,0.63c0.1,0.17,0.32,0.3,0.64,0.4s0.8,0.17,1.43,0.21c0.62,0.04,1.45,0.06,2.47,0.06h0.71
				c1.14,0,2.04-0.02,2.69-0.06c0.65-0.04,1.14-0.11,1.46-0.21s0.53-0.24,0.61-0.42c0.08-0.18,0.11-0.39,0.11-0.64v-0.15
				c0-0.25-0.05-0.46-0.14-0.63c-0.09-0.17-0.32-0.31-0.67-0.42c-0.35-0.11-0.88-0.19-1.58-0.23c-0.7-0.04-1.65-0.06-2.86-0.06
				c-1.65,0-3.07-0.03-4.26-0.1c-1.19-0.07-2.19-0.18-3-0.33c-0.81-0.15-1.46-0.36-1.94-0.62c-0.49-0.26-0.86-0.59-1.12-0.98
				c-0.26-0.39-0.43-0.86-0.52-1.4c-0.08-0.54-0.13-1.17-0.13-1.89v-0.3c0-0.96,0.12-1.76,0.37-2.41c0.24-0.65,0.72-1.16,1.43-1.55
				c0.71-0.39,1.69-0.66,2.95-0.83c1.26-0.17,2.9-0.25,4.92-0.25H52c1.61,0,3,0.03,4.16,0.1c1.16,0.07,2.14,0.17,2.94,0.32
				c0.8,0.14,1.44,0.34,1.92,0.59c0.48,0.25,0.85,0.56,1.11,0.93c0.26,0.37,0.43,0.81,0.52,1.31c0.08,0.5,0.13,1.08,0.13,1.74v0.4
				h-5.88v-0.2c0-0.22-0.03-0.4-0.1-0.56c-0.07-0.15-0.24-0.28-0.5-0.38c-0.27-0.1-0.68-0.18-1.24-0.23
				c-0.56-0.05-1.31-0.08-2.27-0.08H52c-1.13,0-2.01,0.02-2.66,0.05c-0.65,0.03-1.14,0.1-1.46,0.2s-0.53,0.23-0.62,0.39
				c-0.08,0.16-0.13,0.37-0.13,0.62v0.15c0,0.25,0.04,0.45,0.13,0.61c0.08,0.15,0.31,0.27,0.68,0.37c0.37,0.09,0.93,0.16,1.69,0.19
				c0.76,0.03,1.81,0.05,3.15,0.05c2.27,0,4.1,0.08,5.47,0.24c1.38,0.16,2.45,0.44,3.2,0.83c0.76,0.4,1.26,0.93,1.5,1.6
				c0.24,0.67,0.37,1.53,0.37,2.57v0.35c0,1.01-0.12,1.86-0.37,2.55c-0.24,0.69-0.73,1.24-1.46,1.65c-0.73,0.41-1.76,0.71-3.09,0.9
				c-1.33,0.18-3.08,0.28-5.25,0.28H52.33z"/>
			<path class="st0" d="M91,28.8h-6.46l-1.54-2.98H72.53l-1.51,2.98h-6.38l9.71-17.16h6.84L91,28.8z M80.96,21.87l-3.18-6.18h-0.1
				l-3.13,6.18H80.96z"/>
			<polygon class="st0" points="110.98,28.8 93.25,28.8 93.25,11.65 99.3,11.65 99.3,24.21 110.98,24.21 			"/>
			<polygon class="st0" points="142.67,28.8 136.84,28.8 136.84,17.25 136.77,17.25 130.51,28.8 125.92,28.8 119.79,17.25 
				119.66,17.25 119.66,28.8 113.84,28.8 113.84,11.65 122.14,11.65 128.32,23.18 128.39,23.18 134.52,11.65 142.67,11.65 			"/>
			<path class="st0" d="M158.44,29.01c-1.72,0-3.2-0.04-4.45-0.11c-1.25-0.08-2.32-0.22-3.19-0.44c-0.87-0.22-1.59-0.53-2.14-0.92
				c-0.56-0.39-0.98-0.91-1.29-1.55c-0.3-0.64-0.51-1.41-0.62-2.32c-0.11-0.91-0.16-1.98-0.16-3.23v-0.4c0-1.24,0.05-2.32,0.16-3.23
				c0.11-0.91,0.32-1.68,0.62-2.31c0.3-0.63,0.73-1.15,1.29-1.55c0.56-0.4,1.27-0.71,2.14-0.93c0.87-0.22,1.94-0.37,3.19-0.44
				c1.25-0.08,2.74-0.11,4.45-0.11h0.78c1.72,0,3.2,0.04,4.45,0.11c1.25,0.08,2.32,0.22,3.19,0.44c0.87,0.22,1.58,0.53,2.13,0.93
				c0.55,0.4,0.97,0.92,1.27,1.55c0.3,0.63,0.51,1.4,0.62,2.31c0.11,0.91,0.16,1.98,0.16,3.23v0.4c0,1.24-0.05,2.32-0.16,3.23
				c-0.11,0.91-0.32,1.68-0.62,2.32c-0.3,0.64-0.73,1.16-1.27,1.55c-0.55,0.4-1.26,0.7-2.13,0.92c-0.87,0.22-1.94,0.37-3.19,0.44
				c-1.25,0.08-2.74,0.11-4.45,0.11H158.44z M159.07,24.44c1.4,0,2.49-0.04,3.27-0.11c0.78-0.08,1.37-0.26,1.75-0.54
				c0.39-0.29,0.63-0.7,0.72-1.25c0.09-0.55,0.14-1.3,0.14-2.26v-0.2c0-0.94-0.05-1.69-0.14-2.25c-0.09-0.56-0.33-0.97-0.72-1.25
				c-0.39-0.28-0.97-0.45-1.75-0.53c-0.78-0.08-1.87-0.11-3.27-0.11h-0.45c-1.4,0-2.49,0.04-3.28,0.11
				c-0.79,0.08-1.38,0.25-1.77,0.53c-0.39,0.28-0.62,0.69-0.71,1.25c-0.08,0.56-0.13,1.3-0.13,2.25v0.2c0,0.96,0.04,1.71,0.13,2.26
				c0.08,0.55,0.32,0.96,0.71,1.25c0.39,0.29,0.98,0.47,1.77,0.54c0.79,0.08,1.88,0.11,3.28,0.11H159.07z"/>
			<polygon class="st0" points="198.71,28.8 190.36,28.8 180.92,16.52 180.82,16.52 180.82,28.8 174.97,28.8 174.97,11.65 
				183.54,11.65 192.78,23.86 192.88,23.86 192.88,11.65 198.71,11.65 			"/>
			<path class="st3" d="M42.35,36.36h2.68c0.61,0,1.07,0.06,1.38,0.17c0.43,0.16,0.79,0.43,1.1,0.83c0.3,0.4,0.54,0.89,0.69,1.46
				c0.16,0.58,0.24,1.29,0.24,2.14c0,0.74-0.07,1.38-0.22,1.92c-0.18,0.66-0.44,1.19-0.78,1.6c-0.25,0.31-0.6,0.55-1.03,0.72
				c-0.32,0.13-0.76,0.19-1.3,0.19h-2.76V36.36z M43.82,37.89v5.98h1.1c0.41,0,0.71-0.03,0.89-0.09c0.24-0.07,0.44-0.2,0.59-0.38
				c0.16-0.18,0.29-0.47,0.38-0.87s0.15-0.96,0.15-1.65c0-0.7-0.05-1.23-0.15-1.61c-0.1-0.37-0.24-0.67-0.42-0.88
				c-0.18-0.21-0.4-0.35-0.68-0.43c-0.21-0.06-0.61-0.09-1.21-0.09H43.82z"/>
			<polygon class="st3" points="59.63,45.39 59.63,36.36 65.02,36.36 65.02,37.89 61.1,37.89 61.1,39.89 64.75,39.89 64.75,41.41 
				61.1,41.41 61.1,43.87 65.16,43.87 65.16,45.39 			"/>
			<polygon class="st3" points="78.2,45.39 75.6,36.36 77.19,36.36 79.03,43.04 80.81,36.36 82.37,36.36 79.77,45.39 			"/>
			<polygon class="st3" points="93.06,45.39 93.06,36.36 98.45,36.36 98.45,37.89 94.53,37.89 94.53,39.89 98.18,39.89 98.18,41.41 
				94.53,41.41 94.53,43.87 98.59,43.87 98.59,45.39 			"/>
			<polygon class="st3" points="109.81,45.39 109.81,36.43 111.28,36.43 111.28,43.87 114.93,43.87 114.93,45.39 			"/>
			<path class="st3" d="M125.62,40.93c0-0.92,0.11-1.69,0.33-2.32c0.17-0.46,0.39-0.87,0.68-1.24c0.29-0.37,0.6-0.64,0.94-0.81
				c0.45-0.24,0.98-0.36,1.57-0.36c1.07,0,1.93,0.41,2.57,1.24c0.64,0.83,0.96,1.97,0.96,3.45c0,1.46-0.32,2.6-0.96,3.42
				c-0.64,0.82-1.49,1.24-2.56,1.24c-1.08,0-1.94-0.41-2.58-1.23C125.94,43.5,125.62,42.37,125.62,40.93 M127.13,40.87
				c0,1.02,0.19,1.8,0.57,2.33c0.38,0.53,0.86,0.79,1.45,0.79s1.07-0.26,1.44-0.79c0.37-0.52,0.56-1.31,0.56-2.36
				c0-1.04-0.18-1.81-0.55-2.32c-0.37-0.51-0.85-0.76-1.46-0.76c-0.61,0-1.09,0.26-1.46,0.77
				C127.32,39.05,127.13,39.83,127.13,40.87"/>
			<path class="st3" d="M143.76,45.39v-9.04h2.36c0.89,0,1.47,0.05,1.75,0.14c0.42,0.14,0.76,0.43,1.05,0.88
				c0.28,0.45,0.42,1.04,0.42,1.76c0,0.55-0.08,1.02-0.24,1.4c-0.16,0.38-0.37,0.67-0.62,0.89c-0.25,0.22-0.5,0.36-0.76,0.43
				c-0.35,0.09-0.86,0.13-1.52,0.13h-0.96v3.41H143.76z M145.23,37.89v2.56h0.8c0.58,0,0.97-0.05,1.16-0.14s0.35-0.24,0.46-0.44
				c0.11-0.2,0.17-0.44,0.17-0.7c0-0.33-0.08-0.6-0.23-0.81c-0.16-0.21-0.35-0.35-0.59-0.4c-0.18-0.04-0.53-0.06-1.06-0.06H145.23z"
				/>
			<polygon class="st3" points="160.47,45.39 160.47,36.36 165.86,36.36 165.86,37.89 161.94,37.89 161.94,39.89 165.59,39.89 
				165.59,41.41 161.94,41.41 161.94,43.87 166,43.87 166,45.39 			"/>
			<path class="st3" d="M177.19,45.39v-9.04h3.09c0.78,0,1.34,0.08,1.69,0.24c0.35,0.16,0.63,0.45,0.85,0.87
				c0.21,0.42,0.32,0.89,0.32,1.42c0,0.68-0.16,1.24-0.48,1.68c-0.32,0.44-0.8,0.72-1.44,0.84c0.32,0.23,0.58,0.48,0.79,0.76
				c0.21,0.28,0.49,0.76,0.84,1.47l0.89,1.76h-1.75l-1.06-1.97c-0.38-0.7-0.63-1.15-0.77-1.33c-0.14-0.18-0.29-0.31-0.44-0.38
				c-0.16-0.07-0.4-0.1-0.74-0.1h-0.3v3.77H177.19z M178.66,40.18h1.09c0.7,0,1.14-0.04,1.32-0.11c0.18-0.07,0.31-0.2,0.41-0.38
				c0.1-0.18,0.15-0.41,0.15-0.68c0-0.3-0.07-0.55-0.2-0.74c-0.13-0.19-0.31-0.31-0.55-0.35c-0.12-0.02-0.48-0.03-1.07-0.03h-1.15
				V40.18z"/>
		</g>
		<path class="st3" d="M194.09,42.45l1.43-0.17c0.09,0.6,0.26,1.03,0.52,1.31c0.26,0.28,0.62,0.42,1.06,0.42
			c0.47,0,0.83-0.12,1.07-0.37c0.24-0.25,0.36-0.54,0.36-0.87c0-0.21-0.05-0.4-0.15-0.55c-0.1-0.15-0.28-0.28-0.53-0.39
			c-0.17-0.07-0.56-0.21-1.18-0.39c-0.79-0.24-1.34-0.54-1.66-0.89c-0.45-0.5-0.67-1.1-0.67-1.82c0-0.46,0.1-0.89,0.31-1.29
			c0.21-0.4,0.51-0.71,0.91-0.92c0.39-0.21,0.87-0.31,1.43-0.31c0.91,0,1.6,0.25,2.06,0.75c0.46,0.5,0.7,1.16,0.73,1.99l-1.47,0.08
			c-0.06-0.46-0.2-0.8-0.4-1c-0.21-0.2-0.52-0.31-0.93-0.31c-0.43,0-0.76,0.11-1,0.33c-0.16,0.14-0.23,0.33-0.23,0.56
			c0,0.21,0.07,0.4,0.22,0.55c0.18,0.19,0.63,0.39,1.35,0.6c0.71,0.21,1.24,0.43,1.58,0.65c0.34,0.22,0.61,0.53,0.8,0.92
			c0.19,0.39,0.29,0.87,0.29,1.44c0,0.52-0.12,1-0.35,1.45c-0.23,0.45-0.56,0.79-0.98,1.01c-0.42,0.22-0.95,0.33-1.58,0.33
			c-0.92,0-1.62-0.26-2.12-0.79C194.48,44.23,194.19,43.46,194.09,42.45"/>
	</g>
</g>
</svg>
